<?xml version="1.0" encoding="UTF-8" standalone="no"?>
<svg
   viewBox="0.0 0.0 348.0 348.0"
   fill="none"
   version="1.1"
   id="svg2"
   sodipodi:docname="Matchup Chart.svg"
   inkscape:version="1.4.3 (0d15f75, 2025-12-25)"
   xmlns:inkscape="http://www.inkscape.org/namespaces/inkscape"
   xmlns:sodipodi="http://sodipodi.sourceforge.net/DTD/sodipodi-0.dtd"
   xmlns:xlink="http://www.w3.org/1999/xlink"
   xmlns="http://www.w3.org/2000/svg"
   xmlns:svg="http://www.w3.org/2000/svg">
  <defs
     id="defs2" />
  <sodipodi:namedview
     id="namedview2"
     pagecolor="#ffffff"
     bordercolor="#000000"
     borderopacity="0.25"
     inkscape:showpageshadow="2"
     inkscape:pageopacity="0.0"
     inkscape:pagecheckerboard="0"
     inkscape:deskcolor="#d1d1d1"
     inkscape:zoom="2.25"
     inkscape:cx="174"
     inkscape:cy="174"
     inkscape:window-width="1920"
     inkscape:window-height="1001"
     inkscape:window-x="-9"
     inkscape:window-y="-9"
     inkscape:window-maximized="1"
     inkscape:current-layer="svg2" />
  <path
     d="M 342.3705,6.1545015 V 343.0675 H 4.7004985 V 6.1555015 Z"
     stroke-width="2"
     stroke="#000000"
     id="path1" />
  <path
     d="m 307.5925,283.8095 c 8.376,0 15.165,6.966 15.165,15.56 0,4.126 -1.597,8.084 -4.441,11.001 -2.844,2.918 -6.702,4.558 -10.724,4.558 -8.376,0 -15.165,-6.966 -15.165,-15.56 0,-8.593 6.79,-15.559 15.165,-15.559 z"
     stroke-width="2"
     stroke="#000000"
     id="path2" />
  <path
     style="display:none;fill:#000000;fill-opacity:1"
     sodipodi:type="inkscape:offset"
     inkscape:radius="1.7777776"
     inkscape:original="M 91.777344 22.148438 L 91.777344 63.960938 L 133.58984 63.960938 L 133.58984 22.148438 L 91.777344 22.148438 z "
     xlink:href="#rect2"
     id="path3"
     inkscape:href="#rect2"
     d="M 91.777344,20.371094 A 1.7779553,1.7779553 0 0 0 90,22.148437 v 41.8125 a 1.7779553,1.7779553 0 0 0 1.777344,1.777344 h 41.812496 a 1.7779553,1.7779553 0 0 0 1.77735,-1.777344 v -41.8125 a 1.7779553,1.7779553 0 0 0 -1.77735,-1.777343 z"
     transform="translate(3.67507e-6,-0.37167783)" />
  <rect
     style="fill:#ffffff;fill-opacity:1;stroke:#000000;stroke-width:0.836276;stroke-opacity:1"
     id="rect2"
     width="41.813778"
     height="41.813778"
     x="91.776367"
     y="22.147966"
     inkscape:highlight-color="#000000" />
  <path
     style="display:none;fill:#000000;fill-opacity:1"
     sodipodi:type="inkscape:offset"
     inkscape:radius="1.7777776"
     inkscape:original="M 141.77734 22.148438 L 141.77734 63.962891 L 183.5918 63.962891 L 183.5918 22.148438 L 141.77734 22.148438 z "
     xlink:href="#rect2-4"
     id="path3-9"
     inkscape:href="#rect2-4"
     d="M 141.77734,20.371094 A 1.7779553,1.7779553 0 0 0 140,22.148437 v 41.814454 a 1.7779553,1.7779553 0 0 0 1.77734,1.777343 h 41.81446 a 1.7779553,1.7779553 0 0 0 1.77734,-1.777343 V 22.148437 a 1.7779553,1.7779553 0 0 0 -1.77734,-1.777343 z"
     transform="translate(2.8194445e-6,-0.37167782)" />
  <rect
     style="fill:#ffffff;fill-opacity:1;stroke:#000000;stroke-width:0.836276;stroke-opacity:1"
     id="rect2-4"
     width="41.813778"
     height="41.813778"
     x="141.77745"
     y="22.148699"
     inkscape:highlight-color="#000000" />
  <path
     style="display:none;fill:#000000;fill-opacity:1"
     sodipodi:type="inkscape:offset"
     inkscape:radius="1.7777776"
     inkscape:original="M 191.77734 22.150391 L 191.77734 63.962891 L 233.5918 63.962891 L 233.5918 22.150391 L 191.77734 22.150391 z "
     xlink:href="#rect2-4-2"
     id="path3-9-8"
     inkscape:href="#rect2-4-2"
     d="M 191.77734,20.373047 A 1.7779553,1.7779553 0 0 0 190,22.150391 v 41.8125 a 1.7779553,1.7779553 0 0 0 1.77734,1.777343 h 41.81446 a 1.7779553,1.7779553 0 0 0 1.77734,-1.777343 v -41.8125 a 1.7779553,1.7779553 0 0 0 -1.77734,-1.777344 z"
     transform="translate(2.7083333e-6,-0.37167788)" />
  <rect
     style="fill:#ffffff;fill-opacity:1;stroke:#000000;stroke-width:0.836276;stroke-opacity:1"
     id="rect2-4-2"
     width="41.813778"
     height="41.813778"
     x="191.77811"
     y="22.149649"
     inkscape:highlight-color="#000000" />
  <path
     style="display:none;fill:#000000;fill-opacity:1"
     sodipodi:type="inkscape:offset"
     inkscape:radius="1.7777776"
     inkscape:original="M 241.77734 22.148438 L 241.77734 63.962891 L 283.5918 63.962891 L 283.5918 22.148438 L 241.77734 22.148438 z "
     xlink:href="#rect2-4-2-5"
     id="path3-9-8-5"
     inkscape:href="#rect2-4-2-5"
     d="M 241.77734,20.371094 A 1.7779553,1.7779553 0 0 0 240,22.148437 v 41.814454 a 1.7779553,1.7779553 0 0 0 1.77734,1.777343 h 41.81446 a 1.7779553,1.7779553 0 0 0 1.77734,-1.777343 V 22.148437 a 1.7779553,1.7779553 0 0 0 -1.77734,-1.777343 z"
     transform="translate(3e-6,-0.37167782)" />
  <rect
     style="fill:#ffffff;fill-opacity:1;stroke:#000000;stroke-width:0.836276;stroke-opacity:1"
     id="rect2-4-2-5"
     width="41.813778"
     height="41.813778"
     x="241.77811"
     y="22.14843"
     inkscape:highlight-color="#000000" />
  <path
     style="display:none;fill:#000000;fill-opacity:1"
     sodipodi:type="inkscape:offset"
     inkscape:radius="1.7777776"
     inkscape:original="M 91.777344 72.148438 L 91.777344 113.96289 L 133.58984 113.96289 L 133.58984 72.148438 L 91.777344 72.148438 z "
     xlink:href="#rect2-2"
     id="path3-3"
     inkscape:href="#rect2-2"
     d="M 91.777344,70.371094 A 1.7779553,1.7779553 0 0 0 90,72.148437 v 41.814453 a 1.7779553,1.7779553 0 0 0 1.777344,1.77734 h 41.812496 a 1.7779553,1.7779553 0 0 0 1.77735,-1.77734 V 72.148437 a 1.7779553,1.7779553 0 0 0 -1.77735,-1.777343 z"
     transform="translate(3.7822222e-6,-0.37167789)" />
  <rect
     style="fill:#ffffff;fill-opacity:1;stroke:#000000;stroke-width:0.836276;stroke-opacity:1"
     id="rect2-2"
     width="41.813778"
     height="41.813778"
     x="91.776794"
     y="72.148499"
     inkscape:highlight-color="#000000" />
  <path
     style="display:none;fill:#000000;fill-opacity:1"
     sodipodi:type="inkscape:offset"
     inkscape:radius="1.7777776"
     inkscape:original="M 141.77734 72.148438 L 141.77734 113.96289 L 183.5918 113.96289 L 183.5918 72.148438 L 141.77734 72.148438 z "
     xlink:href="#rect2-4-1"
     id="path3-9-2"
     inkscape:href="#rect2-4-1"
     d="M 141.77734,70.371094 A 1.7779553,1.7779553 0 0 0 140,72.148437 v 41.814453 a 1.7779553,1.7779553 0 0 0 1.77734,1.77734 h 41.81446 a 1.7779553,1.7779553 0 0 0 1.77734,-1.77734 V 72.148437 a 1.7779553,1.7779553 0 0 0 -1.77734,-1.777343 z"
     transform="translate(2.7822222e-6,-0.37167789)" />
  <rect
     style="fill:#ffffff;fill-opacity:1;stroke:#000000;stroke-width:0.836276;stroke-opacity:1"
     id="rect2-4-1"
     width="41.813778"
     height="41.813778"
     x="141.77788"
     y="72.149231"
     inkscape:highlight-color="#000000" />
  <path
     style="display:none;fill:#000000;fill-opacity:1"
     sodipodi:type="inkscape:offset"
     inkscape:radius="1.7777776"
     inkscape:original="M 191.7793 72.150391 L 191.7793 113.96484 L 233.5918 113.96484 L 233.5918 72.150391 L 191.7793 72.150391 z "
     xlink:href="#rect2-4-2-8"
     id="path3-9-8-6"
     inkscape:href="#rect2-4-2-8"
     d="m 191.7793,70.373047 a 1.7779553,1.7779553 0 0 0 -1.77735,1.777344 v 41.814449 a 1.7779553,1.7779553 0 0 0 1.77735,1.77735 h 41.8125 a 1.7779553,1.7779553 0 0 0 1.77734,-1.77735 V 72.150391 a 1.7779553,1.7779553 0 0 0 -1.77734,-1.777344 z"
     transform="translate(2.7822222e-6,-0.37167789)" />
  <rect
     style="fill:#ffffff;fill-opacity:1;stroke:#000000;stroke-width:0.836276;stroke-opacity:1"
     id="rect2-4-2-8"
     width="41.813778"
     height="41.813778"
     x="191.77853"
     y="72.150185"
     inkscape:highlight-color="#000000" />
  <path
     style="display:none;fill:#000000;fill-opacity:1"
     sodipodi:type="inkscape:offset"
     inkscape:radius="1.7777776"
     inkscape:original="M 241.7793 72.148438 L 241.7793 113.96289 L 283.5918 113.96289 L 283.5918 72.148438 L 241.7793 72.148438 z "
     xlink:href="#rect2-4-2-5-7"
     id="path3-9-8-5-5"
     inkscape:href="#rect2-4-2-5-7"
     d="m 241.7793,70.371094 a 1.7779553,1.7779553 0 0 0 -1.77735,1.777343 v 41.814453 a 1.7779553,1.7779553 0 0 0 1.77735,1.77734 h 41.8125 a 1.7779553,1.7779553 0 0 0 1.77734,-1.77734 V 72.148437 a 1.7779553,1.7779553 0 0 0 -1.77734,-1.777343 z"
     transform="translate(2.7822222e-6,-0.37167789)" />
  <rect
     style="fill:#ffffff;fill-opacity:1;stroke:#000000;stroke-width:0.836276;stroke-opacity:1"
     id="rect2-4-2-5-7"
     width="41.813778"
     height="41.813778"
     x="241.77853"
     y="72.148964"
     inkscape:highlight-color="#000000" />
  <path
     style="display:none;fill:#000000;fill-opacity:1"
     sodipodi:type="inkscape:offset"
     inkscape:radius="1.7777776"
     inkscape:original="M 41.777344 72.148438 L 41.777344 113.96289 L 83.589844 113.96289 L 83.589844 72.148438 L 41.777344 72.148438 z "
     xlink:href="#rect2-4-2-5-5"
     id="path3-9-8-5-1"
     inkscape:href="#rect2-4-2-5-5"
     d="M 41.777344,70.371094 A 1.7779553,1.7779553 0 0 0 40,72.148437 v 41.814453 a 1.7779553,1.7779553 0 0 0 1.777344,1.77734 h 41.8125 a 1.7779553,1.7779553 0 0 0 1.777343,-1.77734 V 72.148437 a 1.7779553,1.7779553 0 0 0 -1.777343,-1.777343 z"
     transform="translate(6.6833333e-6,-0.37167759)" />
  <rect
     style="fill:#ffffff;fill-opacity:1;stroke:#000000;stroke-width:0.836276;stroke-opacity:1"
     id="rect2-4-2-5-5"
     width="41.813778"
     height="41.813778"
     x="41.776798"
     y="72.148315"
     inkscape:highlight-color="#000000" />
  <path
     style="display:none;fill:#000000;fill-opacity:1"
     sodipodi:type="inkscape:offset"
     inkscape:radius="1.7777776"
     inkscape:original="M 91.777344 122.14844 L 91.777344 163.96289 L 133.5918 163.96289 L 133.5918 122.14844 L 91.777344 122.14844 z "
     xlink:href="#rect2-2-8"
     id="path3-3-1"
     inkscape:href="#rect2-2-8"
     d="M 91.777344,120.37109 A 1.7779553,1.7779553 0 0 0 90,122.14844 v 41.81445 a 1.7779553,1.7779553 0 0 0 1.777344,1.77734 H 133.5918 a 1.7779553,1.7779553 0 0 0 1.77734,-1.77734 v -41.81445 a 1.7779553,1.7779553 0 0 0 -1.77734,-1.77735 z"
     transform="translate(3.7722218e-6,-0.37167782)" />
  <rect
     style="fill:#ffffff;fill-opacity:1;stroke:#000000;stroke-width:0.836276;stroke-opacity:1"
     id="rect2-2-8"
     width="41.813778"
     height="41.813778"
     x="91.777206"
     y="122.14917"
     inkscape:highlight-color="#000000" />
  <path
     style="display:none;fill:#000000;fill-opacity:1"
     sodipodi:type="inkscape:offset"
     inkscape:radius="1.7777776"
     inkscape:original="M 141.77734 122.15039 L 141.77734 163.96289 L 183.5918 163.96289 L 183.5918 122.15039 L 141.77734 122.15039 z "
     xlink:href="#rect2-4-1-2"
     id="path3-9-2-9"
     inkscape:href="#rect2-4-1-2"
     d="M 141.77734,120.37305 A 1.7779553,1.7779553 0 0 0 140,122.15039 v 41.8125 a 1.7779553,1.7779553 0 0 0 1.77734,1.77734 h 41.81446 a 1.7779553,1.7779553 0 0 0 1.77734,-1.77734 v -41.8125 a 1.7779553,1.7779553 0 0 0 -1.77734,-1.77734 z"
     transform="translate(2.7722222e-6,-0.37167782)" />
  <rect
     style="fill:#ffffff;fill-opacity:1;stroke:#000000;stroke-width:0.836276;stroke-opacity:1"
     id="rect2-4-1-2"
     width="41.813778"
     height="41.813778"
     x="141.77831"
     y="122.1499"
     inkscape:highlight-color="#000000" />
  <path
     style="display:none;fill:#000000;fill-opacity:1"
     sodipodi:type="inkscape:offset"
     inkscape:radius="1.7777776"
     inkscape:original="M 191.7793 122.15039 L 191.7793 163.96484 L 233.5918 163.96484 L 233.5918 122.15039 L 191.7793 122.15039 z "
     xlink:href="#rect2-4-2-8-9"
     id="path3-9-8-6-7"
     inkscape:href="#rect2-4-2-8-9"
     d="m 191.7793,120.37305 a 1.7779553,1.7779553 0 0 0 -1.77735,1.77734 v 41.81445 a 1.7779553,1.7779553 0 0 0 1.77735,1.77735 h 41.8125 a 1.7779553,1.7779553 0 0 0 1.77734,-1.77735 v -41.81445 a 1.7779553,1.7779553 0 0 0 -1.77734,-1.77734 z"
     transform="translate(2.7722222e-6,-0.37167782)" />
  <rect
     style="fill:#ffffff;fill-opacity:1;stroke:#000000;stroke-width:0.836276;stroke-opacity:1"
     id="rect2-4-2-8-9"
     width="41.813778"
     height="41.813778"
     x="191.77896"
     y="122.15085"
     inkscape:highlight-color="#000000" />
  <path
     style="display:none;fill:#000000;fill-opacity:1"
     sodipodi:type="inkscape:offset"
     inkscape:radius="1.7777776"
     inkscape:original="M 241.7793 122.15039 L 241.7793 163.96289 L 283.5918 163.96289 L 283.5918 122.15039 L 241.7793 122.15039 z "
     xlink:href="#rect2-4-2-5-7-4"
     id="path3-9-8-5-5-5"
     inkscape:href="#rect2-4-2-5-7-4"
     d="m 241.7793,120.37305 a 1.7779553,1.7779553 0 0 0 -1.77735,1.77734 v 41.8125 a 1.7779553,1.7779553 0 0 0 1.77735,1.77734 h 41.8125 a 1.7779553,1.7779553 0 0 0 1.77734,-1.77734 v -41.8125 a 1.7779553,1.7779553 0 0 0 -1.77734,-1.77734 z"
     transform="translate(2.7722222e-6,-0.37167782)" />
  <rect
     style="fill:#ffffff;fill-opacity:1;stroke:#000000;stroke-width:0.836276;stroke-opacity:1"
     id="rect2-4-2-5-7-4"
     width="41.813778"
     height="41.813778"
     x="241.77896"
     y="122.14963"
     inkscape:highlight-color="#000000" />
  <path
     style="display:none;fill:#000000;fill-opacity:1"
     sodipodi:type="inkscape:offset"
     inkscape:radius="1.7777776"
     inkscape:original="M 41.777344 122.14844 L 41.777344 163.96289 L 83.591797 163.96289 L 83.591797 122.14844 L 41.777344 122.14844 z "
     xlink:href="#rect2-4-2-5-5-1"
     id="path3-9-8-5-1-3"
     inkscape:href="#rect2-4-2-5-5-1"
     d="M 41.777344,120.37109 A 1.7779553,1.7779553 0 0 0 40,122.14844 v 41.81445 a 1.7779553,1.7779553 0 0 0 1.777344,1.77734 h 41.814453 a 1.7779553,1.7779553 0 0 0 1.777344,-1.77734 v -41.81445 a 1.7779553,1.7779553 0 0 0 -1.777344,-1.77735 z"
     transform="translate(6.7722218e-6,-0.37167782)" />
  <rect
     style="fill:#ffffff;fill-opacity:1;stroke:#000000;stroke-width:0.836276;stroke-opacity:1"
     id="rect2-4-2-5-5-1"
     width="41.813778"
     height="41.813778"
     x="41.77721"
     y="122.14898"
     inkscape:highlight-color="#000000" />
  <path
     style="display:none;fill:#000000;fill-opacity:1"
     sodipodi:type="inkscape:offset"
     inkscape:radius="1.7777776"
     inkscape:original="M 91.777344 172.15039 L 91.777344 213.96289 L 133.58984 213.96289 L 133.58984 172.15039 L 91.777344 172.15039 z "
     xlink:href="#rect2-2-8-3"
     id="path3-3-1-3"
     inkscape:href="#rect2-2-8-3"
     d="M 91.777344,170.37305 A 1.7779553,1.7779553 0 0 0 90,172.15039 v 41.8125 a 1.7779553,1.7779553 0 0 0 1.777344,1.77734 h 41.812496 a 1.7779553,1.7779553 0 0 0 1.77735,-1.77734 v -41.8125 a 1.7779553,1.7779553 0 0 0 -1.77735,-1.77734 z"
     transform="translate(4.2277773e-6,-0.37167759)" />
  <rect
     style="fill:#ffffff;fill-opacity:1;stroke:#000000;stroke-width:0.836276;stroke-opacity:1"
     id="rect2-2-8-3"
     width="41.813778"
     height="41.813778"
     x="91.776756"
     y="172.14946"
     inkscape:highlight-color="#000000" />
  <path
     style="display:none;fill:#000000;fill-opacity:1"
     sodipodi:type="inkscape:offset"
     inkscape:radius="1.7777776"
     inkscape:original="M 141.77734 172.15039 L 141.77734 213.96484 L 183.5918 213.96484 L 183.5918 172.15039 L 141.77734 172.15039 z "
     xlink:href="#rect2-4-1-2-1"
     id="path3-9-2-9-4"
     inkscape:href="#rect2-4-1-2-1"
     d="M 141.77734,170.37305 A 1.7779553,1.7779553 0 0 0 140,172.15039 v 41.81445 a 1.7779553,1.7779553 0 0 0 1.77734,1.77735 h 41.81446 a 1.7779553,1.7779553 0 0 0 1.77734,-1.77735 v -41.81445 a 1.7779553,1.7779553 0 0 0 -1.77734,-1.77734 z"
     transform="translate(3.2277773e-6,-0.37167759)" />
  <rect
     style="fill:#ffffff;fill-opacity:1;stroke:#000000;stroke-width:0.836276;stroke-opacity:1"
     id="rect2-4-1-2-1"
     width="41.813778"
     height="41.813778"
     x="141.77788"
     y="172.15019"
     inkscape:highlight-color="#000000" />
  <path
     style="display:none;fill:#000000;fill-opacity:1"
     sodipodi:type="inkscape:offset"
     inkscape:radius="1.7777776"
     inkscape:original="M 191.7793 172.15039 L 191.7793 213.96484 L 233.5918 213.96484 L 233.5918 172.15039 L 191.7793 172.15039 z "
     xlink:href="#rect2-4-2-8-9-3"
     id="path3-9-8-6-7-1"
     inkscape:href="#rect2-4-2-8-9-3"
     d="m 191.7793,170.37305 a 1.7779553,1.7779553 0 0 0 -1.77735,1.77734 v 41.81445 a 1.7779553,1.7779553 0 0 0 1.77735,1.77735 h 41.8125 a 1.7779553,1.7779553 0 0 0 1.77734,-1.77735 v -41.81445 a 1.7779553,1.7779553 0 0 0 -1.77734,-1.77734 z"
     transform="translate(3.2277773e-6,-0.37167759)" />
  <rect
     style="fill:#ffffff;fill-opacity:1;stroke:#000000;stroke-width:0.836276;stroke-opacity:1"
     id="rect2-4-2-8-9-3"
     width="41.813778"
     height="41.813778"
     x="191.77853"
     y="172.15114"
     inkscape:highlight-color="#000000" />
  <path
     style="display:none;fill:#000000;fill-opacity:1"
     sodipodi:type="inkscape:offset"
     inkscape:radius="1.7777776"
     inkscape:original="M 241.7793 172.15039 L 241.7793 213.96289 L 283.5918 213.96289 L 283.5918 172.15039 L 241.7793 172.15039 z "
     xlink:href="#rect2-4-2-5-7-4-7"
     id="path3-9-8-5-5-5-8"
     inkscape:href="#rect2-4-2-5-7-4-7"
     d="m 241.7793,170.37305 a 1.7779553,1.7779553 0 0 0 -1.77735,1.77734 v 41.8125 a 1.7779553,1.7779553 0 0 0 1.77735,1.77734 h 41.8125 a 1.7779553,1.7779553 0 0 0 1.77734,-1.77734 v -41.8125 a 1.7779553,1.7779553 0 0 0 -1.77734,-1.77734 z"
     transform="translate(3.2277773e-6,-0.37167759)" />
  <rect
     style="fill:#ffffff;fill-opacity:1;stroke:#000000;stroke-width:0.836276;stroke-opacity:1"
     id="rect2-4-2-5-7-4-7"
     width="41.813778"
     height="41.813778"
     x="241.77853"
     y="172.14992"
     inkscape:highlight-color="#000000" />
  <path
     style="display:none;fill:#000000;fill-opacity:1"
     sodipodi:type="inkscape:offset"
     inkscape:radius="1.7777776"
     inkscape:original="M 41.777344 172.14844 L 41.777344 213.96289 L 83.589844 213.96289 L 83.589844 172.14844 L 41.777344 172.14844 z "
     xlink:href="#rect2-4-2-5-5-1-2"
     id="path3-9-8-5-1-3-4"
     inkscape:href="#rect2-4-2-5-5-1-2"
     d="M 41.777344,170.37109 A 1.7779553,1.7779553 0 0 0 40,172.14844 v 41.81445 a 1.7779553,1.7779553 0 0 0 1.777344,1.77734 h 41.8125 a 1.7779553,1.7779553 0 0 0 1.777343,-1.77734 v -41.81445 a 1.7779553,1.7779553 0 0 0 -1.777343,-1.77735 z"
     transform="translate(7.2277773e-6,-0.37167759)" />
  <rect
     style="fill:#ffffff;fill-opacity:1;stroke:#000000;stroke-width:0.836276;stroke-opacity:1"
     id="rect2-4-2-5-5-1-2"
     width="41.813778"
     height="41.813778"
     x="41.776756"
     y="172.14928"
     inkscape:highlight-color="#000000" />
  <path
     style="display:none;fill:#000000;fill-opacity:1"
     sodipodi:type="inkscape:offset"
     inkscape:radius="1.7777776"
     inkscape:original="M 91.777344 222.14844 L 91.777344 263.96289 L 133.58984 263.96289 L 133.58984 222.14844 L 91.777344 222.14844 z "
     xlink:href="#rect2-2-8-3-9"
     id="path3-3-1-3-7"
     inkscape:href="#rect2-2-8-3-9"
     d="M 91.777344,220.37109 A 1.7779553,1.7779553 0 0 0 90,222.14844 v 41.81445 a 1.7779553,1.7779553 0 0 0 1.777344,1.77734 h 41.812496 a 1.7779553,1.7779553 0 0 0 1.77735,-1.77734 v -41.81445 a 1.7779553,1.7779553 0 0 0 -1.77735,-1.77735 z"
     transform="translate(4e-6,-0.37167728)" />
  <rect
     style="fill:#ffffff;fill-opacity:1;stroke:#000000;stroke-width:0.836276;stroke-opacity:1"
     id="rect2-2-8-3-9"
     width="41.813778"
     height="41.813778"
     x="91.776733"
     y="222.14867"
     inkscape:highlight-color="#000000" />
  <path
     style="display:none;fill:#000000;fill-opacity:1"
     sodipodi:type="inkscape:offset"
     inkscape:radius="1.7777776"
     inkscape:original="M 141.77734 222.14844 L 141.77734 263.96289 L 183.5918 263.96289 L 183.5918 222.14844 L 141.77734 222.14844 z "
     xlink:href="#rect2-4-1-2-1-1"
     id="path3-9-2-9-4-3"
     inkscape:href="#rect2-4-1-2-1-1"
     d="M 141.77734,220.37109 A 1.7779553,1.7779553 0 0 0 140,222.14844 v 41.81445 a 1.7779553,1.7779553 0 0 0 1.77734,1.77734 h 41.81446 a 1.7779553,1.7779553 0 0 0 1.77734,-1.77734 v -41.81445 a 1.7779553,1.7779553 0 0 0 -1.77734,-1.77735 z"
     transform="translate(3e-6,-0.37167728)" />
  <rect
     style="fill:#ffffff;fill-opacity:1;stroke:#000000;stroke-width:0.836276;stroke-opacity:1"
     id="rect2-4-1-2-1-1"
     width="41.813778"
     height="41.813778"
     x="141.77788"
     y="222.1494"
     inkscape:highlight-color="#000000" />
  <path
     style="display:none;fill:#000000;fill-opacity:1"
     sodipodi:type="inkscape:offset"
     inkscape:radius="1.7777776"
     inkscape:original="M 191.7793 222.15039 L 191.7793 263.96484 L 233.5918 263.96484 L 233.5918 222.15039 L 191.7793 222.15039 z "
     xlink:href="#rect2-4-2-8-9-3-8"
     id="path3-9-8-6-7-1-9"
     inkscape:href="#rect2-4-2-8-9-3-8"
     d="m 191.7793,220.37305 a 1.7779553,1.7779553 0 0 0 -1.77735,1.77734 v 41.81445 a 1.7779553,1.7779553 0 0 0 1.77735,1.77735 h 41.8125 a 1.7779553,1.7779553 0 0 0 1.77734,-1.77735 v -41.81445 a 1.7779553,1.7779553 0 0 0 -1.77734,-1.77734 z"
     transform="translate(3e-6,-0.37167728)" />
  <rect
     style="fill:#ffffff;fill-opacity:1;stroke:#000000;stroke-width:0.836276;stroke-opacity:1"
     id="rect2-4-2-8-9-3-8"
     width="41.813778"
     height="41.813778"
     x="191.77853"
     y="222.15034"
     inkscape:highlight-color="#000000" />
  <path
     style="display:none;fill:#000000;fill-opacity:1"
     sodipodi:type="inkscape:offset"
     inkscape:radius="1.7777776"
     inkscape:original="M 241.7793 222.14844 L 241.7793 263.96289 L 283.5918 263.96289 L 283.5918 222.14844 L 241.7793 222.14844 z "
     xlink:href="#rect2-4-2-5-7-4-7-5"
     id="path3-9-8-5-5-5-8-6"
     inkscape:href="#rect2-4-2-5-7-4-7-5"
     d="m 241.7793,220.37109 a 1.7779553,1.7779553 0 0 0 -1.77735,1.77735 v 41.81445 a 1.7779553,1.7779553 0 0 0 1.77735,1.77734 h 41.8125 a 1.7779553,1.7779553 0 0 0 1.77734,-1.77734 v -41.81445 a 1.7779553,1.7779553 0 0 0 -1.77734,-1.77735 z"
     transform="translate(3e-6,-0.37167728)" />
  <rect
     style="fill:#ffffff;fill-opacity:1;stroke:#000000;stroke-width:0.836276;stroke-opacity:1"
     id="rect2-4-2-5-7-4-7-5"
     width="41.813778"
     height="41.813778"
     x="241.77853"
     y="222.14912"
     inkscape:highlight-color="#000000" />
  <path
     style="display:none;fill:#000000;fill-opacity:1"
     sodipodi:type="inkscape:offset"
     inkscape:radius="1.7777776"
     inkscape:original="M 141.77734 277.14844 L 141.77734 318.96289 L 183.58984 318.96289 L 183.58984 277.14844 L 141.77734 277.14844 z "
     xlink:href="#rect2-4-2-5-7-4-7-5-6"
     id="path3-9-8-5-5-5-8-6-8"
     inkscape:href="#rect2-4-2-5-7-4-7-5-6"
     d="M 141.77734,275.37109 A 1.7779553,1.7779553 0 0 0 140,277.14844 v 41.81445 a 1.7779553,1.7779553 0 0 0 1.77734,1.77734 h 41.8125 a 1.7779553,1.7779553 0 0 0 1.77735,-1.77734 v -41.81445 a 1.7779553,1.7779553 0 0 0 -1.77735,-1.77735 z"
     transform="translate(7.7822222e-6,-0.37167742)" />
  <rect
     style="fill:#ffffff;fill-opacity:1;stroke:#000000;stroke-width:0.836276;stroke-opacity:1"
     id="rect2-4-2-5-7-4-7-5-6"
     width="41.813778"
     height="41.813778"
     x="141.77699"
     y="277.14914"
     inkscape:highlight-color="#000000" />
  <path
     style="display:none;fill:#000000;fill-opacity:1"
     sodipodi:type="inkscape:offset"
     inkscape:radius="1.7777776"
     inkscape:original="M 41.777344 222.14844 L 41.777344 263.96289 L 83.589844 263.96289 L 83.589844 222.14844 L 41.777344 222.14844 z "
     xlink:href="#rect2-4-2-5-5-1-2-2"
     id="path3-9-8-5-1-3-4-0"
     inkscape:href="#rect2-4-2-5-5-1-2-2"
     d="M 41.777344,220.37109 A 1.7779553,1.7779553 0 0 0 40,222.14844 v 41.81445 a 1.7779553,1.7779553 0 0 0 1.777344,1.77734 h 41.8125 a 1.7779553,1.7779553 0 0 0 1.777343,-1.77734 v -41.81445 a 1.7779553,1.7779553 0 0 0 -1.777343,-1.77735 z"
     transform="translate(7e-6,-0.37167728)" />
  <rect
     style="fill:#ffffff;fill-opacity:1;stroke:#000000;stroke-width:0.836276;stroke-opacity:1"
     id="rect2-4-2-5-5-1-2-2"
     width="41.813778"
     height="41.813778"
     x="41.776733"
     y="222.14848"
     inkscape:highlight-color="#000000" />
  <path
     sodipodi:type="star"
     style="fill:#ffffff;fill-opacity:1;stroke:#000000;stroke-opacity:1"
     id="path5"
     inkscape:flatsided="false"
     sodipodi:sides="3"
     sodipodi:cx="92"
     sodipodi:cy="280"
     sodipodi:r1="36.12051"
     sodipodi:r2="36.12051"
     sodipodi:arg1="1.0471976"
     sodipodi:arg2="3.1240085"
     inkscape:rounded="0"
     inkscape:randomized="0"
     d="M 110.06025,311.28128 55.885074,280.63512 55.87949,280 l 53.62795,-31.594 0.55282,0.31272 0.54723,62.24017 z"
     transform="matrix(0.71717982,0,0,0.61724927,51.643754,124.53925)" />
  <path
     sodipodi:type="star"
     style="fill:#ffffff;fill-opacity:1;stroke:#000000;stroke-opacity:1"
     id="path5-0"
     inkscape:flatsided="false"
     sodipodi:sides="3"
     sodipodi:cx="92"
     sodipodi:cy="280"
     sodipodi:r1="36.12051"
     sodipodi:r2="36.12051"
     sodipodi:arg1="1.0471976"
     sodipodi:arg2="3.1240085"
     inkscape:rounded="0"
     inkscape:randomized="0"
     d="M 110.06025,311.28128 55.885074,280.63512 55.87949,280 l 53.62795,-31.594 0.55282,0.31272 0.54723,62.24017 z"
     transform="matrix(-0.71717982,0,0,-0.61724927,272.68586,469.9945)" />
</svg>
